HIERARCHY
ROOT hip
{
  OFFSET 41.7157 36.524 20.9354
  CHANNELS 6 Xposition Yposition Zposition Zrotation Xrotation Yrotation
  JOINT abdomen
  {
    OFFSET 0 20.6881 -0.73152
    CHANNELS 3 Zrotation Xrotation Yrotation
    JOINT chest
    {
      OFFSET 0 11.7043 -0.48768
      CHANNELS 3 Zrotation Xrotation Yrotation
      JOINT neck
      {
        OFFSET 0 22.1894 -2.19456
        CHANNELS 3 Zrotation Xrotation Yrotation
        JOINT head
        {
          OFFSET -0.24384 7.07133 1.2192
          CHANNELS 3 Zrotation Xrotation Yrotation
          JOINT leftEye
          {
            OFFSET 4.14528 8.04674 8.04672
            CHANNELS 3 Zrotation Xrotation Yrotation
            End Site
            {
              OFFSET 1 0 0
            }
          }
          JOINT rightEye
          {
            OFFSET -3.6576 8.04674 8.04672
            CHANNELS 3 Zrotation Xrotation Yrotation
            End Site
            {
              OFFSET 1 0 0
            }
          }
        }
      }
      JOINT rCollar
      {
        OFFSET -2.68224 19.2634 -4.8768
        CHANNELS 3 Zrotation Xrotation Yrotation
        JOINT rShldr
        {
          OFFSET -8.77824 -1.95073 1.46304
          CHANNELS 3 Zrotation Xrotation Yrotation
          JOINT rForeArm
          {
            OFFSET -28.1742 -1.7115 0.48768
            CHANNELS 3 Zrotation Xrotation Yrotation
            JOINT rHand
            {
              OFFSET -22.5879 0.773209 7.07136
              CHANNELS 3 Zrotation Xrotation Yrotation
              JOINT rThumb1
              {
                OFFSET -1.2192 -0.487915 3.41376
                CHANNELS 3 Zrotation Xrotation Yrotation
                JOINT rThumb2
                {
                  OFFSET -3.37035 -0.52449 3.41376
                  CHANNELS 3 Zrotation Xrotation Yrotation
                  End Site
                  {
                    OFFSET -1.78271 -1.18214 1.43049
                  }
                }
              }
              JOINT rIndex1
              {
                OFFSET -7.75947 0.938293 5.60832
                CHANNELS 3 Zrotation Xrotation Yrotation
                JOINT rIndex2
                {
                  OFFSET -2.54057 -0.884171 1.56538
                  CHANNELS 3 Zrotation Xrotation Yrotation
                  End Site
                  {
                    OFFSET -1.62519 -0.234802 1.16502
                  }
                }
              }
              JOINT rMid1
              {
                OFFSET -8.24714 1.18213 3.41376
                CHANNELS 3 Zrotation Xrotation Yrotation
                JOINT rMid2
                {
                  OFFSET -3.10165 -0.590103 1.0647
                  CHANNELS 3 Zrotation Xrotation Yrotation
                  End Site
                  {
                    OFFSET -2.48547 -0.328903 0.83742
                  }
                }
              }
              JOINT rRing1
              {
                OFFSET -8.82822 0.546677 1.51678
                CHANNELS 3 Zrotation Xrotation Yrotation
                JOINT rRing2
                {
                  OFFSET -2.60934 -0.819778 -0.0198488
                  CHANNELS 3 Zrotation Xrotation Yrotation
                  End Site
                  {
                    OFFSET -2.33842 -0.294052 0.168128
                  }
                }
              }
              JOINT rPinky1
              {
                OFFSET -8.27202 -0.0477905 -0.4584
                CHANNELS 3 Zrotation Xrotation Yrotation
                JOINT rPinky2
                {
                  OFFSET -1.82734 -0.647385 -0.700984
                  CHANNELS 3 Zrotation Xrotation Yrotation
                  End Site
                  {
                    OFFSET -1.69225 -0.51767 -0.607171
                  }
                }
              }
            }
          }
        }
      }
      JOINT lCollar
      {
        OFFSET 2.68224 19.2634 -4.8768
        CHANNELS 3 Zrotation Xrotation Yrotation
        JOINT lShldr
        {
          OFFSET 8.77824 -1.95073 1.46304
          CHANNELS 3 Zrotation Xrotation Yrotation
          JOINT lForeArm
          {
            OFFSET 28.1742 -1.7115 0.48768
            CHANNELS 3 Zrotation Xrotation Yrotation
            JOINT lHand
            {
              OFFSET 22.5879 0.773209 7.07136
              CHANNELS 3 Zrotation Xrotation Yrotation
              JOINT lThumb1
              {
                OFFSET 1.2192 -0.487915 3.41376
                CHANNELS 3 Zrotation Xrotation Yrotation
                JOINT lThumb2
                {
                  OFFSET 3.37035 -0.52449 3.41376
                  CHANNELS 3 Zrotation Xrotation Yrotation
                  End Site
                  {
                    OFFSET 1.78271 -1.18214 1.43049
                  }
                }
              }
              JOINT lIndex1
              {
                OFFSET 7.75947 0.938293 5.60832
                CHANNELS 3 Zrotation Xrotation Yrotation
                JOINT lIndex2
                {
                  OFFSET 2.54057 -0.884171 1.56538
                  CHANNELS 3 Zrotation Xrotation Yrotation
                  End Site
                  {
                    OFFSET 1.62519 -0.234802 1.16502
                  }
                }
              }
              JOINT lMid1
              {
                OFFSET 8.24714 1.18213 3.41376
                CHANNELS 3 Zrotation Xrotation Yrotation
                JOINT lMid2
                {
                  OFFSET 3.10165 -0.590103 1.0647
                  CHANNELS 3 Zrotation Xrotation Yrotation
                  End Site
                  {
                    OFFSET 2.48547 -0.328903 0.83742
                  }
                }
              }
              JOINT lRing1
              {
                OFFSET 8.82822 0.546677 1.51678
                CHANNELS 3 Zrotation Xrotation Yrotation
                JOINT lRing2
                {
                  OFFSET 2.60934 -0.819778 -0.0198488
                  CHANNELS 3 Zrotation Xrotation Yrotation
                  End Site
                  {
                    OFFSET 2.33842 -0.294052 0.168128
                  }
                }
              }
              JOINT lPinky1
              {
                OFFSET 8.27202 -0.0477905 -0.4584
                CHANNELS 3 Zrotation Xrotation Yrotation
                JOINT lPinky2
                {
                  OFFSET 1.82734 -0.647385 -0.700984
                  CHANNELS 3 Zrotation Xrotation Yrotation
                  End Site
                  {
                    OFFSET 1.69225 -0.51767 -0.607171
                  }
                }
              }
            }
          }
        }
      }
    }
  }
  JOINT rButtock
  {
    OFFSET -8.77824 4.35084 1.2192
    CHANNELS 3 Zrotation Xrotation Yrotation
    JOINT rThigh
    {
      OFFSET 0 -1.70687 -2.19456
      CHANNELS 3 Zrotation Xrotation Yrotation
      JOINT rShin
      {
        OFFSET 0 -36.8199 0.73152
        CHANNELS 3 Zrotation Xrotation Yrotation
        JOINT rFoot
        {
          OFFSET 0.73152 -45.1104 -5.12064
          CHANNELS 3 Zrotation Xrotation Yrotation
          End Site
          {
            OFFSET -1.1221 -3.69964 12.103
          }
        }
      }
    }
  }
  JOINT lButtock
  {
    OFFSET 8.77824 4.35084 1.2192
    CHANNELS 3 Zrotation Xrotation Yrotation
    JOINT lThigh
    {
      OFFSET 0 -1.70687 -2.19456
      CHANNELS 3 Zrotation Xrotation Yrotation
      JOINT lShin
      {
        OFFSET 0 -36.8199 0.73152
        CHANNELS 3 Zrotation Xrotation Yrotation
        JOINT lFoot
        {
          OFFSET -0.73152 -45.1104 -5.12064
          CHANNELS 3 Zrotation Xrotation Yrotation
          End Site
          {
            OFFSET 1.1221 -3.69964 12.103
          }
        }
      }
    }
  }
}
MOTION
Frames:	4
Frame Time:	0.00833333
42.5882 9.17791 73.2583 -2.5246 0.0121413 0.0484198 3.32063 0.00284077 0.0895475 0.915305 0.0205961 0.158317 -9.34935e-014 0 7.95138e-016 -2.81355e-013 3.18055e-015 2.23322e-015 -0 0 0 -0 0 0 -4.70634e-014 3.06136e-016 4.47265e-016 -9.80838e-013 6.39838e-015 5.96354e-015 -1.69546e-011 5.2662e-012 2.92611e-013 -1.9376e-010 -3.9345e-012 1.20861e-012 -4.57105e-010 2.88309e-012 3.29187e-012 -7.8941e-010 4.98075e-012 5.70273e-012 -4.57103e-010 2.88198e-012 3.28869e-012 7.73091 5.47488 0.417314 -4.57105e-010 2.88278e-012 3.30142e-012 2.90554 0.965183 0.102902 -4.57105e-010 2.88268e-012 3.30062e-012 10.2786 0.731801 0.0259123 -4.57114e-010 2.88556e-012 3.31096e-012 2.22167 -0.733487 -0.20892 -4.70642e-014 3.02642e-016 3.47873e-016 -9.84533e-013 6.58474e-015 3.37934e-015 -1.69127e-011 -4.8571e-012 3.08514e-013 -1.93785e-010 6.1996e-012 1.19907e-012 -4.57067e-010 2.90579e-012 3.3046e-012 -7.89323e-010 5.01255e-012 5.72182e-012 -4.57069e-010 2.90424e-012 3.31414e-012 -7.73091 5.47488 -0.417314 -4.57065e-010 2.90494e-012 3.30142e-012 -2.90554 0.965183 -0.102902 -4.57067e-010 2.90514e-012 3.3038e-012 -10.2786 0.731801 -0.0259123 -4.57057e-010 2.90941e-012 3.29505e-012 -2.22167 -0.733487 0.20892 -2.03217e-016 0 -3.88251e-019 2.98658 -9.63159 -0.346272 0.00975121 11.8577 0.256723 -0.53991 -2.24081 0.0144194 2.03217e-016 0 3.88251e-019 2.06977 -1.93655 -0.0170922 0.00840795 -2.07868 0.0689417 0.451748 4.00043 -0.131442 
42.9667 45.7342 22.3763 -1.40944 27.4639 1.08851 3.26584 -3.22823 1.28385 1.41175 0.282443 0.462908 0.02681 -2.43958 -1.06942 0.239389 3.31708 -2.03678 -0 0 0 -0 0 0 -9.98639e-015 2.84204e-014 -4.65863e-014 -14.2975 -13.8181 8.36463 -11.1669 -8.06127 13.0055 0.223516 -10.5265 -1.39102 -5.14534e-010 2.14077e-010 -1.53868e-010 -8.82023e-010 3.9307e-010 -2.71804e-010 -5.14529e-010 2.14083e-010 -1.53875e-010 7.73091 5.47488 0.417314 -5.14534e-010 2.14075e-010 -1.53861e-010 2.90554 0.965183 0.102902 -5.1453e-010 2.14082e-010 -1.53865e-010 10.2786 0.731801 0.0259123 -5.14541e-010 2.14078e-010 -1.53853e-010 2.22167 -0.733487 -0.20892 -1.00372e-014 2.84179e-014 -4.67583e-014 14.5842 -20.1736 -11.6484 10.7459 -7.62236 -12.7692 -0.0223737 -3.31898 0.463628 -5.52707e-011 -1.05294e-009 -2.91278e-010 -9.22061e-011 -1.82047e-009 -4.99932e-010 -5.52758e-011 -1.05293e-009 -2.9127e-010 -7.73091 5.47488 -0.417314 -5.52691e-011 -1.05294e-009 -2.9128e-010 -2.90554 0.965183 -0.102902 -5.52724e-011 -1.05294e-009 -2.91279e-010 -10.2786 0.731801 -0.0259123 -5.52626e-011 -1.05293e-009 -2.91287e-010 -2.22167 -0.733487 0.20892 -2.03217e-016 0 -3.88251e-019 3.82641 -16.3152 1.67175 0.0104112 17.9183 0.175459 -0.401847 0.434117 -2.72377 2.03217e-016 0 3.88251e-019 2.02556 -8.41821 -2.18033 0.0235767 5.68501 -0.0482886 0.489107 2.80465 1.70116 
42.9315 45.6652 22.6055 -2.11413 56.4572 3.50705 3.35749 -6.65616 2.55471 1.94254 0.559227 0.783271 -0.0513008 -5.01145 -2.21302 0.757398 6.73007 -4.22431 -0 0 0 -0 0 0 2.98405e-014 5.33133e-014 -9.83549e-014 -24.5676 -27.3624 18.9419 -19.0242 -15.1916 27.5293 -0.133716 -21.5909 -3.02098 -5.70129e-010 5.41812e-010 -3.53304e-010 -9.70017e-010 9.84525e-010 -6.22398e-010 -5.70121e-010 5.41825e-010 -3.53315e-010 7.73091 5.47488 0.417314 -5.70129e-010 5.41808e-010 -3.533e-010 2.90554 0.965183 0.102902 -5.70121e-010 5.41823e-010 -3.53305e-010 10.2786 0.731801 0.0259123 -5.70135e-010 5.41812e-010 -3.53292e-010 2.22167 -0.733487 -0.20892 2.97348e-014 5.33117e-014 -9.86065e-014 19.1321 -38.4108 -29.2745 18.4659 -14.4379 -26.9717 0.0127512 -6.82536 0.958736 3.47337e-010 -2.09904e-009 -6.01004e-010 6.06436e-010 -3.62922e-009 -1.0317e-009 3.47329e-010 -2.09903e-009 -6.00998e-010 -7.73091 5.47488 -0.417314 3.47339e-010 -2.09904e-009 -6.01006e-010 -2.90554 0.965183 -0.102902 3.47333e-010 -2.09904e-009 -6.01006e-010 -10.2786 0.731801 -0.0259123 3.47344e-010 -2.09904e-009 -6.01013e-010 -2.22167 -0.733487 0.20892 -2.03217e-016 0 -3.88251e-019 5.26816 -23.3464 3.97861 0.0314076 24.3439 0.0860754 0.0212192 3.24665 -5.61801 2.03217e-016 0 3.88251e-019 1.4302 -15.2679 -4.58622 0.0742855 13.8833 -0.17838 0.612478 1.53144 3.64702 
42.9104 45.6222 22.632 -17.7369 81.8847 20.2505 3.56509 -9.67278 3.71928 2.39628 0.806024 1.07218 -0.194522 -7.30851 -3.23162 1.43327 9.90057 -6.19268 -0 0 0 -0 0 0 6.41676e-014 8.4649e-014 -1.40653e-013 -28.6268 -37.4566 31.3092 -22.969 -19.1381 41.3554 -1.0861 -31.4984 -4.81338 -6.29392e-010 6.36464e-010 -4.68189e-010 -1.06725e-009 1.16925e-009 -8.26817e-010 -6.29381e-010 6.36484e-010 -4.68203e-010 7.73091 5.47488 0.417314 -6.29392e-010 6.36459e-010 -4.68187e-010 2.90554 0.965183 0.102902 -6.29381e-010 6.36481e-010 -4.68195e-010 10.2786 0.731801 0.0259123 -6.29396e-010 6.36463e-010 -4.6818e-010 2.22167 -0.733487 -0.20892 6.4017e-014 8.46484e-014 -1.40971e-013 10.8137 -47.751 -53.6226 22.4694 -18.2773 -40.3792 0.0960982 -9.9543 1.40978 7.48322e-010 -3.16463e-009 -8.80443e-010 1.30203e-009 -5.47143e-009 -1.51124e-009 7.48311e-010 -3.16461e-009 -8.80438e-010 -7.73091 5.47488 -0.417314 7.48323e-010 -3.16463e-009 -8.80444e-010 -2.90554 0.965183 -0.102902 7.48316e-010 -3.16463e-009 -8.80444e-010 -10.2786 0.731801 -0.0259123 7.48327e-010 -3.16462e-009 -8.80451e-010 -2.22167 -0.733487 0.20892 -2.03217e-016 0 -3.88251e-019 7.10814 -29.5518 6.32103 0.069123 30.0394 -0.00190006 0.641366 5.72609 -8.2413 2.03217e-016 0 3.88251e-019 0.378613 -21.2581 -6.90845 0.153994 21.2121 -0.302437 0.793028 0.414937 5.35974 
